# xmcd
#
# Track frame offsets:
# 150
# 9235
# 21612
# 37364
# 49633
# 63387
# 73687
# 87171
# 97902
# 106878
# 115125
# 130176
# 142931
# 155039
# 167741
# 179579
# 192281
# 204119
# 215769
# 229956
# 242901
# 253795
# 264148
# 273124
# 285125
# 296126
# 306830
# 322502
#
# Disc length: 4455 seconds
#
#
# Revision: 0
# Processed by: cddbd v1.5.2PL0 Copyright (c) Steve Scherf et al.
# Submitted via: FreeRIP 2.951 
#
DISCID=9011651c
DTITLE=Irmãs Freitas E Voinho - Irmãs Freitas E Voinho
DYEAR=1900
DGENRE=
TTITLE0=Vestido Branco
TTITLE1=A Filha Que Volta
TTITLE2=Preciso Chorar
TTITLE3=Solidão
TTITLE4=Foi Feitiço
TTITLE5=Me Leva
TTITLE6=Fique Aqui Comigo
TTITLE7=Vou Te Amar Até Morrer
TTITLE8=Promessas De Amor
TTITLE9=Nosso Amor Está Morrendo
TTITLE10=Palavra Adeus
TTITLE11=Amiga Inimiga
TTITLE12=Cinismo
TTITLE13=India Do Araguaia
TTITLE14=O Amor Existe
TTITLE15=Pedido A Santo Antonio
TTITLE16=Belezas Do Araguaia
TTITLE17=Me Escreva Agora
TTITLE18=Borboleta
TTITLE19=Bebendo E Chorando
TTITLE20=Velha Canoa
TTITLE21=Canoeira Do Araguaia
TTITLE22=Amando Em Segredo
TTITLE23=Velho Cuiabá
TTITLE24=Eu Vivo A Sofrer
TTITLE25=Jovem Diferente
TTITLE26=Choveu Na Minha Roça
TTITLE27=Telefones Do Mundo
EXTD=
EXTT0=
EXTT1=
EXTT2=
EXTT3=
EXTT4=
EXTT5=
EXTT6=
EXTT7=
EXTT8=
EXTT9=
EXTT10=
EXTT11=
EXTT12=
EXTT13=
EXTT14=
EXTT15=
EXTT16=
EXTT17=
EXTT18=
EXTT19=
EXTT20=
EXTT21=
EXTT22=
EXTT23=
EXTT24=
EXTT25=
EXTT26=
EXTT27=
PLAYORDER=
